<svg width="904" height="700" viewBox="0 0 904 1150" fill="none" xmlns="http://www.w3.org/2000/svg"><path fill-rule="evenodd" clip-rule="evenodd" d="M210.814 1083.71c26.553.09 52.354.99 78.982 1.08 108.24.36 217.477-.16 326.11-4.55 30.704-1.24 38.368-1.21 68.939-3.13 18.051-.07 72.272-1.56 69.557-26.15-1.198-45.79-12.536-91.391-16.106-137.061-6.854-85.856-12.69-174.396-47.103-254.697-7.966-19.178-25.073-31.719-42.008-42.995-16.984-12.166-21.152-25.673-36.826-39.416-3.314-2.907-22.135-4.089-32.262-11.46-14.739-10.729-22.048-28.294-27.547-31.285-4.047-2.2-3.973-17.379-12.083-22.751-10.883-7.21-45.565-12.57-58.183-13.573-12.111-.962-33.176 1.059-44.539 5.494-18.949 7.396-26.507 21.504-34.852 39.68-110.253 34.077-211.026 91.781-242.322 208.173-26.988 97.618-27.978 202.27-17.551 302.391 2.085 7.32.624 18.79 6.95 23.65-21.986 1.26 57.862 5.79 60.844 6.6z" fill="#fff"/><path fill-rule="evenodd" clip-rule="evenodd" d="M712.282 987.325c-2.087-1.042-4.261-2.233-6.644-2.316-4.092-.142-4.097-6.51 0-6.366 3.574.125 6.712 1.614 9.857 3.185 3.67 1.832.442 7.321-3.213 5.497m-6.644-179.205c2.792.002 5.607.355 7.752 2.307 1.274 1.162 1.173 3.328 0 4.502-1.257 1.256-3.232 1.158-4.503 0 .415.377.004.004-.146-.08a.427.427 0 0 1-.066-.041l-.115-.028a14.373 14.373 0 0 0-.998-.226c-.005.016-.71-.047-.876-.053-.35-.013-.699-.015-1.048-.015-1.727-.001-3.183-1.455-3.183-3.183 0-1.719 1.463-3.184 3.183-3.183m-29.933 71.414c-.912 3.999-7.048 2.296-6.139-1.693 1.323-5.799 1.082-11.741 0-17.561-.745-4.011 5.392-5.714 6.139-1.692 1.297 6.981 1.588 13.987 0 20.946m-8.041-228.808c-4.741-1.126-9.43-1.26-14.28-1.261-4.103-.002-4.096-6.369 0-6.367 5.409.002 10.689.234 15.973 1.489 3.99.948 2.29 7.085-1.693 6.139m-15.886 155.075-8.25-4.126c-3.67-1.834-.442-7.324 3.212-5.498l8.251 4.127c3.669 1.834.441 7.324-3.213 5.497m-1.146 125.375c-3.487 5.028-8.392 8.153-14.277 9.714-3.971 1.052-5.65-5.091-1.693-6.139 4.209-1.116 7.948-3.148 10.473-6.789 2.322-3.347 7.838-.161 5.497 3.214M628.635 707.02c-.944-1.763-2.364-2.508-4.128-2.548-4.096-.094-4.097-6.46 0-6.366 4.019.09 7.704 2.108 9.624 5.702 1.933 3.615-3.565 6.828-5.496 3.212m-40.379 43.276c-1.142 1.243-3.355 1.212-4.502 0a10.659 10.659 0 0 1-1.758-2.478c-.177-.345-.343-.696-.537-1.031a6.827 6.827 0 0 0-.282-.44 4.477 4.477 0 0 1-.174-.177c-1.223-1.293-1.192-3.202 0-4.502 1.142-1.243 3.355-1.212 4.502 0 .702.742 1.294 1.57 1.758 2.478.176.345.342.696.537 1.032.087.149.183.296.282.439.034.03.102.101.174.177 1.224 1.293 1.192 3.202 0 4.502m-3.395 94.01c-4.146 1.897-8.693 1.897-12.839 0-1.57-.719-1.943-2.986-1.141-4.356.928-1.587 2.792-1.856 4.354-1.142 1.881.861 4.535.86 6.413 0 1.57-.718 3.416-.463 4.355 1.142.806 1.379.422 3.64-1.142 4.356m-11.309 66.543c-.712 1.686-2.25 2.582-4.049 2.651-1.782.067-3.108-1.513-3.183-3.184-.048-1.079.536-2.001 1.374-2.573l.002-.177c.001-1.784 1.458-3.106 3.183-3.183 1.718-.078 3.184 1.518 3.183 3.183-.001 1.124-.07 2.239-.51 3.283m-16.425 105.791c-5.08.08-10.044 1.29-15.125 1.37-4.105.07-4.093-6.3 0-6.36 5.08-.09 10.044-1.3 15.125-1.38 4.106-.06 4.093 6.3 0 6.37m-21.126-407.988c-2.974 2.833-6.647 4.229-10.269 5.999-3.67 1.793-6.894-3.699-3.214-5.498 3.069-1.499 6.466-2.607 8.982-5.003 2.968-2.827 7.475 1.67 4.501 4.502m-7.982 73.383c-2.087-1.042-4.262-2.233-6.643-2.316-4.093-.143-4.099-6.51 0-6.367 3.573.124 6.711 1.615 9.856 3.185 3.671 1.832.442 7.322-3.213 5.498m-38.27 294.522c-.942-1.765-2.363-2.509-4.126-2.549-4.097-.093-4.099-6.46 0-6.367 4.019.092 7.704 2.11 9.624 5.702 1.932 3.616-3.565 6.828-5.498 3.214m-13.253-138.25c-1.267-1.163-1.178-3.323 0-4.501l4.126-4.126c1.258-1.258 3.23-1.167 4.501 0 1.267 1.163 1.179 3.323 0 4.502l-4.125 4.125c-1.259 1.259-3.231 1.167-4.502 0M460.87 1053.77c-4.592-.11-8.897-1.43-13.221-2.87-3.875-1.28-2.204-7.43 1.692-6.13 3.759 1.25 7.534 2.54 11.529 2.63 4.098.1 4.099 6.46 0 6.37m-20.626-136.145c-4.149-.115-7.591-2.228-10.501-5.058-2.944-2.862 1.563-7.36 4.502-4.501 1.665 1.618 3.587 3.126 5.999 3.193 4.096.113 4.099 6.48 0 6.366m12.809-175.081c.05 1.695.766 3.511 1.818 4.625 2.813 2.98-1.683 7.487-4.502 4.502-2.325-2.462-3.585-5.758-3.682-9.127-.118-4.105 6.249-4.088 6.366 0m-48.559-138.662c-1.332-2.609-3.078-5.668-5.734-7.109-3.606-1.957-.389-7.452 3.214-5.497 3.609 1.959 6.192 5.82 8.017 9.393 1.862 3.645-3.634 6.863-5.497 3.213m-8.252 66.21c-1.477-.042-2.943-.295-4.368-.681-.608-.165-1.21-.355-1.82-.521-.261-.071-1.369-.209-.688-.173-1.724-.092-3.183-1.383-3.183-3.183 0-1.655 1.464-3.276 3.183-3.183 2.363.126 4.511 1.308 6.876 1.375 4.094.115 4.097 6.482 0 6.366m-20.627 101.763h-6.875c-4.103 0-4.096-6.366 0-6.366h6.875c4.103 0 4.096 6.366 0 6.366m-8.02 281.475c-2.085 1.05-4.542 2.03-6.231 3.63-2.977 2.82-7.485-1.68-4.501-4.5 2.151-2.03 4.901-3.31 7.52-4.62 1.543-.78 3.44-.43 4.355 1.14.827 1.41.395 3.58-1.143 4.35m-15.362-80.439a6.292 6.292 0 0 0-.818-.162c-1.082-.147-2.215-.096-3.302-.096-4.103-.003-4.097-6.369 0-6.367 3.229.002 6.588.047 9.127 2.308 1.288 1.147 1.163 3.338 0 4.501-1.265 1.265-3.219 1.144-4.502 0 .135.122-.328-.134-.505-.184m-4.118-108.187c.924-1.907.939-3.15.94-5.27.004-4.103 6.37-4.096 6.367 0-.002 3.077-.46 5.697-1.81 8.483-.754 1.554-2.96 1.959-4.355 1.142-1.564-.914-1.891-2.809-1.142-4.355M329.708 715.36c-3.693 1.256-6.989 3.034-10.24 5.18-3.433 2.265-6.618-3.251-3.214-5.498 3.711-2.448 7.549-4.389 11.761-5.822 3.895-1.324 5.551 4.828 1.693 6.14m-21.473-107.151c-2.743.077-5.574 1.129-8.019 2.316-3.674 1.784-6.898-3.708-3.212-5.498 3.492-1.696 7.312-3.075 11.231-3.184 4.106-.116 4.088 6.252 0 6.366m-9.625 286.038c-1.079.049-2.002-.535-2.573-1.374l-.178-.001c-1.784-.001-3.105-1.458-3.183-3.183-.077-1.719 1.519-3.185 3.183-3.184 1.124.001 2.239.069 3.283.51 1.686.712 2.582 2.25 2.651 4.049.067 1.782-1.513 3.108-3.183 3.183m-15.656-220.143c-3.909 1.278-5.569-4.872-1.692-6.139 4.551-1.487 9.201-2.639 13.751-4.126 3.91-1.277 5.57 4.873 1.692 6.14-4.549 1.486-9.2 2.638-13.751 4.125m-14.277 120.168c-1.212 3.908-7.355 2.23-6.139-1.692 1.174-3.787 1.259-7.597 1.261-11.531.003-4.103 6.369-4.096 6.366 0-.002 4.477-.152 8.914-1.488 13.223m-42.563 143.93c-.232 1.585-1.489 2.727-3.135 2.801-1.675.075-3.243-1.517-3.183-3.183.117-3.205 2.73-5.817 5.933-5.934 1.783-.065 3.109 1.511 3.183 3.184.074 1.626-1.284 2.895-2.798 3.132m-21.54-182.962c-3.364 1.123-6.959 2.192-9.596 4.682-2.98 2.812-7.487-1.683-4.501-4.502 3.477-3.283 7.95-4.832 12.405-6.32 3.901-1.302 5.558 4.849 1.692 6.14m-14.599 123.679c-.924 1.58-2.797 1.866-4.354 1.142-2.088-.971-4.394-.939-6.645-.941-4.102-.003-4.096-6.37 0-6.367 3.473.004 6.677.331 9.858 1.81 1.565.729 1.947 2.979 1.141 4.356m-8.249 150.101c-1.782.06-3.108-1.52-3.183-3.19-.073-1.62 1.284-2.89 2.8-3.13.23-1.59 1.489-2.73 3.133-2.8 1.676-.08 3.245 1.52 3.184 3.18-.117 3.21-2.728 5.82-5.934 5.94m579.981 24.07c-1.081-3.89-3.556-7.04-5.426-10.54-.627-1.18-.845-1.91-1.185-2.78-.461.93-1.357 1.62-2.705 1.62-2.584 0-5.607-.16-8.019.94-1.569.72-3.417.47-4.355-1.14-.806-1.38-.421-3.64 1.142-4.35 3.555-1.63 7.376-1.81 11.232-1.82.953 0 1.674.36 2.183.88 1.474-20.18 1.437-40.376.043-60.573-1.487-21.583-4.91-42.736-8.491-64.04-1.734-10.33-3.986-20.763-3.548-31.284.438-10.449 4.918-20.19 1.743-30.671-1.274-4.202-3.454-8.054-4.871-12.208-1.519-4.472-1.384-8.889-.692-13.521 1.425-9.43 3.787-18.749.007-27.957-1.67-4.083-4.376-7.728-5.681-11.945-1.623-5.245-1.4-11.047-1.671-16.482-.549-10.966-.692-22.005-1.6-32.947-.405-4.902-1.288-9.55-3.302-14.047-1.934-4.329-4.806-8.268-6.087-12.86-1.274-4.52-1.385-9.287-2.069-13.911a89.26 89.26 0 0 0-3.351-14.397c-5.841-18.176-16.544-34.507-29.189-48.664-13.44-15.049-29.507-26.382-46.561-36.942-8.967-5.554-17.934-11.107-26.895-16.66-.191 1.041-.856 1.999-2.131 2.425-3.366 1.124-6.958 2.192-9.596 4.682-2.98 2.813-7.488-1.683-4.502-4.501 3.115-2.941 7.029-4.489 11.013-5.849-4.084-2.574-8.21-5.239-12.818-6.726-4.035-1.305-9.987-.167-13.258-3.127-2.57-2.332-3.382-6.653-4.368-9.821-1.234-3.931-2.3-8.077-3.868-11.897-1.066-2.611-2.618-5.118-4.576-7.139-.859-3.311-2.435-6.335-5.221-8.173-7.288-4.823-16.241-.032-19.448 6.844-2.65-.008-5.443.573-8.021.732-5.3.334-10.608.486-15.915.47-10.385-.032-20.778-.709-31.075-2.085-18.415-2.467-36.28-7.441-54.384-11.317a5.98 5.98 0 0 0-.366-.716c-3.899-6.542-13.615-5.436-19.736-2.961-2.625 1.059-5.299 2.396-6.803 4.879-1.591 1.074-2.968 2.379-3.883 3.756-1.894 2.841-3.358 8.571-7.202 9.048-2.531.311-5.101-.175-7.671.191-3.215.446-6.096 1.576-9.064 2.865-22.6 9.813-45.964 20.724-70.491 24.528-5.752.891-11.609 1.814-16.607 5.037-4.058 2.619-7.194 6.216-10.544 9.63-3.262 3.326-5.952 4.799-10.607 5.396-5.65.724-10.544 2.284-14.674 6.39-3.43 3.414-5.666 7.775-8.356 11.738-2.738 4.043-6.756 6.319-10.926 8.667-9.86 5.555-19.043 12.264-27.04 20.309-16.847 16.967-27.049 38.773-37.33 60.022-11.117 22.983-21.51 46.245-28.72 70.788-7.066 24.098-11.268 48.888-13.21 73.909-2.045 26.254-2.331 52.612-4.034 78.882-.852 13.123-1.496 26.262-2.149 39.393-.636 12.972-1.567 25.968-1.417 38.956.287 25.104 5.308 50.294 14.086 73.804 2.188 5.85 4.615 11.62 7.201 17.3 2.269 4.99 10.027 4.43 12.463 0 .557-1.02.994-2.07 1.36-3.13 6.366.05 12.796-.44 19.123.15 11.172 1.04 22.368 1.62 33.573 2.31 22.171 1.38 44.381 2.3 66.559 3.56 2.152.12 4.304.25 6.455.37-15.805-48.92-13.755-101.807-16.256-152.686-.202-4.101 6.166-4.077 6.366 0 2.511 51.097.373 104.126 16.736 153.126 6.349.43 12.689.95 19.008 1.72 5.108.61 10.241 1.34 15.398 1.08 5.849-.27 11.562-1.61 17.268-2.77 10.369-2.11 20.356-1.16 30.765.14 11.133 1.39 22.305 2.16 33.51 2.65 44.866 1.97 90.034 3.76 134.884.76 10.854-.73 21.684-1.75 32.467-3.13 11.109-1.43 22.099-3.82 33.199-5.18 10.942-1.34 21.001 2.33 31.816 3.01 11.029.69 22.353-1.61 33.279-2.93 3.565-.44 7.133-.86 10.702-1.27-4.595-31.5-7.207-63.23-9.745-94.948-.327-4.092 6.041-4.057 6.366 0 2.517 31.468 5.072 62.968 9.659 94.218 18.92-2.21 37.858-4.43 56.58-7.86 5.331-.97 10.631-2.56 13.822-7.32 2.363-3.52 2.841-7.84 1.702-11.9" fill="#000"/><path fill-rule="evenodd" clip-rule="evenodd" d="M618.738 385.182c-1.713-15.053.504-46.517.652-48.429.939-12.084-4.722-59.804-15.426-55.407-17.954-14.215-41.868-17.353-64.229-18.853-46.447-3.115-95.859 4.036-131.725 35.296-17.737 16.234-35.004 39.845-33.616 64.43-16.115 23.303-38.834 55.269-18.755 82.513 6.825 8.704 17.672 11.945 26.246 18.537 17.246 13.911 28.066 33.875 45.475 47.703 46.123 41.449 124.441 50.108 169.757 2.963 35.042-34.144 29.376-85.225 23.212-128.753-4.144-29.265 1.751 29.367-1.591 0z" fill="#fff"/><path fill-rule="evenodd" clip-rule="evenodd" d="M477.688 198.658c12.422-2.507 25.177-4.067 37.863-3.597l.978.038c9.544.381 21.632 1.225 29.958 6.776.479-.481 1.25-.728 1.948-.394 9.895 4.723 20.778 8.138 31.196 11.531 10.371 3.377 21.13 5.606 31.999 6.504 4.09.339 7.589 4.755 5 8.716-.616.943-1.216 1.897-1.814 2.853 1-.105 1.999-.212 2.999-.313 3.289-.331 6.575 3.179 6.38 6.382a59.02 59.02 0 0 1-.661 5.971c1.253-.027 2.498.161 3.701.67 6.093 2.573 5.669 9.83 5.213 15.351-.632 7.662-3.498 15.778-8.818 21.513 3.972 4.126 6.784 9.054 8.462 14.907 1.217 4.273 1.894 8.825 1.56 13.274l-.107 1.332c-.413 4.827-1.235 10.172-4.708 13.645-1.782 1.791-3.979 2.444-6.072 2.237 1.266 11.125 2.077 22.315 2.841 33.464l.359 5.329c1.704 25.769 2.984 51.705 2.649 77.516-.311 24.122-5.077 47.535-19.87 67.12-13.473 17.835-32.818 30.982-54.702 35.98-11.793 2.697-23.833 2.888-35.77 1.169-5.786-.835-11.61-2.116-17.102-4.138-6.079-2.244-10.447-5.547-14.538-10.497-1.934-2.347-1.003-7.345 2.849-6.876 5.826.707 11.145 1.558 16.73 3.282l.8.252c5.564 1.782 11.325 3.111 17.141 3.676 11.914 1.154 24.009-.007 35.421-3.621 18.581-5.889 34.584-19.012 44.842-35.501 12.175-19.546 13.552-41.733 13.376-64.207-.188-24.662-.99-49.337-2.3-73.973l-.223-4.106c-.692-12.677-1.36-25.363-1.948-38.048-.183-3.979-.462-7.99-.964-11.962-4.591-2.689-8.705-6.398-11.387-10.974-5.387 2.228-11.053 3.836-16.266 5.117-12.075 2.97-24.612 3.691-36.903 1.831a108.874 108.874 0 0 1-10.129 3.61c-.928.412-1.856.816-2.783 1.212-8.277 3.542-16.672 6.542-25.409 8.738l-2.146.536c-4.598 1.133-9.592 2.249-14.486 2.6a21.19 21.19 0 0 1-2.619.804 42.797 42.797 0 0 1-13.646 1.042c-4.45-.374-7.664-4.87-5.213-9.08a1038.4 1038.4 0 0 1 5.42-9.192c-6.343 2.642-12.892 4.839-19.497 6.701-6.669 1.878-13.433 3.462-20.205 4.918-3.621.772-7.257 1.457-10.87 2.229-2.586.549-6.557.835-8.667 2.538-2.331 1.87-2.991 6.232-3.875 8.921a231.197 231.197 0 0 0-3.247 10.553 218.124 218.124 0 0 0-4.861 21.527 205.29 205.29 0 0 0-2.571 21.965c-.469 7.353-.263 14.755-1.018 22.076-.407 3.884-4.576 5.881-7.656 3.167-.361-.318-.725-.64-1.086-.965l-.537-.491c-2.635-2.387-5.189-4.918-7.297-7.767a24.894 24.894 0 0 1-1.09-1.632.259.259 0 0 1-.16-.055l-.584-.44c-6.436-4.791-17.188-11.037-23.464-3.078-2 2.536-3.023 5.764-3.873 8.879l-1.491 5.574c-.965 3.639-1.872 7.298-2.403 11.022-1.202 8.34-.597 17.953 5.141 24.638 2.292 2.674 5.451 4.584 8.976 5.086 1.966.27 3.908-.064 5.857-.311 1.982-.246 3.891.151 5.873-.04 3.151-.31 4.528 3.462 3.35 5.834-.636 1.273-1.385 2.371-2.236 3.303a25.762 25.762 0 0 1 1.966 1.894c1.862.596 3.532 1.878 4.782 3.573 1.011 1.369 1.535 2.857 1.624 4.425.11.39.206.788.294 1.193l1.707 2.771c.376.608.75 1.208 1.125 1.797 4.345 6.845 9.168 12.638 15.161 18.097 5.769 5.253 12.031 9.956 17.451 15.591l.638.669c5.053 5.324 10.38 11.77 8.402 19.513-.509 1.989-3.287 3.422-5.101 2.077-5.833-4.329-8.77-11.189-13.719-16.442-5.094-5.411-10.736-10.274-15.844-15.67-4.831-5.093-8.643-10.863-11.515-17.213-1.147 1.265-2.817 2.164-5.133 2.514-3.978.597-7.688-1.734-9.422-5.18a30.379 30.379 0 0 1-3.398 1.289c-6.032 1.846-9.827-4.863-7.551-9.821 1.216-2.658 2.736-4.966 4.623-6.907-5.897-.812-11.898-3.86-15.773-7.664-9.724-9.558-11.06-23.923-8.872-36.696 1.162-6.772 3.166-13.624 5.769-19.983.453-1.106.939-2.22 1.472-3.318a1.034 1.034 0 0 1-.788-.382c-1.759-2.404-3.899-4.369-5.204-7.059-1.202-2.467-2.538-4.966-3.486-7.537-1.949-5.26-2.904-11.197-3.54-16.76-1.313-11.388-.805-22.705.939-34.021 2.967-19.275 10.135-37.721 20.696-53.906a9.188 9.188 0 0 1-1.639-1.099l-.254-.221-.412-.372c-3.014-2.728-2.754-7.839 0-10.602l.869-.871c1.102-1.094 2.051-1.961 3.83-3.152.262-.176.531-.342.802-.496-.931-1.721-1.254-3.732-.606-5.952 2.26-7.732 13.385-7.459 20.437-4.087 7.801-6.962 16.451-13.007 25.827-17.901 22.33-11.651 47.579-19.776 72.233-24.742zM362.261 402.31c4.17-1.361 9.708 1.496 13.456 3.215 4.751 2.18 8.794 5.403 12.709 8.809 1.95 1.704 2.299 4.489 1.814 6.868-.048.239-.095.486-.152.733-.517 2.538-3.35 4.536-5.857 4.464-5.244-.143-7.742-4.671-10.711-8.507-.349.621-.787 1.194-1.329 1.623l-.366.287c-1.231.938-2.59 1.688-4.217 1.615a7.836 7.836 0 0 1-3.279-.883c-2.546-1.345-3.668-4.64-2.976-7.322a6.816 6.816 0 0 1 2.706-3.923l-.481-.329c-1.028-.715-1.966-1.47-2.697-2.583l-.165-.263h.064c-.796-1.369-.278-3.231 1.481-3.804z" fill="#000"/><path fill-rule="evenodd" clip-rule="evenodd" d="M539.206 483.007c-5.349-2.182-10.122-5.822-13.612-10.473-1.213-1.617-1.528-3.324-1.273-4.885.286-1.756 1.325-3.347 2.741-4.415 1.421-1.07 3.198-1.598 4.917-1.329 1.493.234 2.979 1.051 4.156 2.747l.245.339c2.075 2.807 4.778 5.11 7.859 6.594 2.969 1.431 6.289 2.099 9.725 1.71 6.544-.739 11.055-4.278 15.849-9.085.595-.607 1.189-1.233 1.787-1.868a2.81 2.81 0 0 1 1.482-1.142 3.192 3.192 0 0 1 2.045.03 3.247 3.247 0 0 1 1.609 1.22c.367.539.576 1.206.508 1.973-.439 4.981-3.043 9.427-6.742 12.917-4.108 3.877-9.554 6.559-14.681 7.5-5.648 1.036-11.403.294-16.615-1.833zm19.28-76.844c6.009 3.653 15.165 12.171 8.701 21.227-7.609 7.984-18.565-1.171-23.964-5.311-5.006-3.209-10.631 5.044-5.986 8.791 39.012 28.885 54.844-23.752 24.288-29.002-3.364-.578-4.613 3.165-3.039 4.295zm-69.91-33.6c.664-8.242 13.216-10.114 14.464-1.958 1.118 7.306-.198 14.017-3.488 20.594-3.144 6.284-11.047 3.352-11.644-2.37-.802-7.67.255-11.139.668-16.266zm95.544-3.649c1.75-2.292 4.277-3.857 7.304-2.973 9.457 2.764 6.67 16.192 3.348 22.728-1.805 3.55-7.638 4.45-10.275 1.325-4.297-5.097-6.355-15.275-.892-20.295.148-.259.313-.521.515-.785zm-84.701-32.415 1.493-.261c4.622-.8 10.369-1.568 13.638 2.148 1.734 1.97 2.331 5.633 0 7.519-4.1 3.319-8.632 2.033-13.545 2.313a53.934 53.934 0 0 0-11.841 2.018c-8.556 2.445-15.528 6.91-22.835 11.812-.959.643-1.938-.583-1.481-1.48 4.219-8.263 12.394-15.051 20.582-19.188 4.371-2.209 9.153-4.04 13.989-4.881zm76.08-3.701 1.143.234c12.444 2.601 28.611 7.797 34.504 20.021.224 1.728-.013 2.098-.206 2.34l-.064.081c-.159.207-.286.492-1.035.727-.208-.05-.418-.102-.63-.158-2.701-.708-4.838-1.683-6.907-2.695l-2.244-1.105c-2.602-1.276-5.228-2.506-8.01-3.414a94.37 94.37 0 0 0-18.249-4.03c-1.344-.158-2.639-.612-3.66-1.389a5.496 5.496 0 0 1-2.048-3.119c-.437-1.758-.312-3.089.632-4.675a5.921 5.921 0 0 1 2.889-2.49c1.188-.484 2.54-.598 3.885-.328z" fill="#000"/><path fill-rule="evenodd" clip-rule="evenodd" d="M599.64 441.874c-7.203-3.368-14.944-5.372-22.897-6.083-3.439-.308-10.195-1.28-13.854.964-1.711 1.05-3.156 2.518-4.303 4.31-.447-.619-1.036-1.145-1.409-1.814-2.003-3.599-14.296-3.673-18.007-3.368-8.802.724-17.368 2.791-25.436 6.266-14.484 6.239-26.651 19.202-22.825 35.66.541 2.331 3.152 3.237 5.303 2.835 14.498-2.718 28.997-5.437 43.496-8.154l10.096-1.893c3.044-.571 6.775-.751 9.664-2.064 1.161.496 2.455.811 3.837 1.085 17.444 3.465 34.91 6.827 52.366 10.24 2.093.41 4.838-.652 5.214-2.971 2.505-15.474-7.349-28.516-21.245-35.013" fill="#000"/></svg>