<svg width="904" height="1000" viewBox="0 0 904 1000" fill="none" xmlns="http://www.w3.org/2000/svg">
<path fill-rule="evenodd" clip-rule="evenodd" d="M210.814 1083.71C237.367 1083.8 263.168 1084.7 289.796 1084.79C398.036 1085.15 507.273 1084.63 615.906 1080.24C646.61 1079 654.274 1079.03 684.845 1077.11C702.896 1077.04 757.117 1075.55 754.402 1050.96C753.204 1005.17 741.866 959.569 738.296 913.899C731.442 828.043 725.606 739.503 691.193 659.202C683.227 640.024 666.12 627.483 649.185 616.207C632.201 604.041 628.033 590.534 612.359 576.791C609.045 573.884 590.224 572.702 580.097 565.331C565.358 554.602 558.049 537.037 552.55 534.046C548.503 531.846 548.577 516.667 540.467 511.295C529.584 504.085 494.902 498.725 482.284 497.722C470.173 496.76 449.108 498.781 437.745 503.216C418.796 510.612 411.238 524.72 402.893 542.896C292.64 576.973 191.867 634.677 160.571 751.069C133.583 848.687 132.593 953.339 143.02 1053.46C145.105 1060.78 143.644 1072.25 149.97 1077.11C127.984 1078.37 207.832 1082.9 210.814 1083.71Z" fill="white"/>
<path fill-rule="evenodd" clip-rule="evenodd" d="M712.282 987.325C710.195 986.283 708.021 985.092 705.638 985.009C701.546 984.867 701.541 978.499 705.638 978.643C709.212 978.768 712.35 980.257 715.495 981.828C719.165 983.66 715.937 989.149 712.282 987.325M705.638 808.12C708.43 808.122 711.245 808.475 713.39 810.427C714.664 811.589 714.563 813.755 713.39 814.929C712.133 816.185 710.158 816.087 708.887 814.929C709.302 815.306 708.891 814.933 708.741 814.849C708.705 814.83 708.685 814.816 708.675 814.808C708.644 814.8 708.612 814.793 708.56 814.78C708.227 814.696 707.899 814.614 707.562 814.554C707.557 814.57 706.852 814.507 706.686 814.501C706.336 814.488 705.987 814.486 705.638 814.486C703.911 814.485 702.455 813.031 702.455 811.303C702.455 809.584 703.918 808.119 705.638 808.12M675.705 879.534C674.793 883.533 668.657 881.83 669.566 877.841C670.889 872.042 670.648 866.1 669.566 860.28C668.821 856.269 674.958 854.566 675.705 858.588C677.002 865.569 677.293 872.575 675.705 879.534M667.664 650.726C662.923 649.6 658.234 649.466 653.384 649.465C649.281 649.463 649.288 643.096 653.384 643.098C658.793 643.1 664.073 643.332 669.357 644.587C673.347 645.535 671.647 651.672 667.664 650.726M651.778 805.801C649.028 804.425 646.277 803.05 643.528 801.675C639.858 799.841 643.086 794.351 646.74 796.177L654.991 800.304C658.66 802.138 655.432 807.628 651.778 805.801M650.632 931.176C647.145 936.204 642.24 939.329 636.355 940.89C632.384 941.942 630.705 935.799 634.662 934.751C638.871 933.635 642.61 931.603 645.135 927.962C647.457 924.615 652.973 927.801 650.632 931.176M628.635 707.02C627.691 705.257 626.271 704.512 624.507 704.472C620.411 704.378 620.41 698.012 624.507 698.106C628.526 698.196 632.211 700.214 634.131 703.808C636.064 707.423 630.566 710.636 628.635 707.02M588.256 750.296C587.114 751.539 584.901 751.508 583.754 750.296C583.051 749.554 582.461 748.726 581.996 747.818C581.819 747.473 581.653 747.122 581.459 746.787C581.372 746.638 581.276 746.49 581.177 746.347C581.144 746.317 581.075 746.246 581.003 746.17C579.78 744.877 579.811 742.968 581.003 741.668C582.145 740.425 584.358 740.456 585.505 741.668C586.207 742.41 586.799 743.238 587.263 744.146C587.439 744.491 587.605 744.842 587.8 745.178C587.887 745.327 587.983 745.474 588.082 745.617C588.116 745.647 588.184 745.718 588.256 745.794C589.48 747.087 589.448 748.996 588.256 750.296M584.861 844.306C580.715 846.203 576.168 846.203 572.022 844.306C570.452 843.587 570.079 841.32 570.881 839.95C571.809 838.363 573.673 838.094 575.235 838.808C577.116 839.669 579.77 839.668 581.648 838.808C583.218 838.09 585.064 838.345 586.003 839.95C586.809 841.329 586.425 843.59 584.861 844.306M573.552 910.849C572.84 912.535 571.302 913.431 569.503 913.5C567.721 913.567 566.395 911.987 566.32 910.316C566.272 909.237 566.856 908.315 567.694 907.743C567.694 907.685 567.696 907.626 567.696 907.566C567.697 905.782 569.154 904.46 570.879 904.383C572.597 904.305 574.063 905.901 574.062 907.566C574.061 908.69 573.992 909.805 573.552 910.849M557.127 1016.64C552.047 1016.72 547.083 1017.93 542.002 1018.01C537.897 1018.08 537.909 1011.71 542.002 1011.65C547.082 1011.56 552.046 1010.35 557.127 1010.27C561.233 1010.21 561.22 1016.57 557.127 1016.64M536.001 608.652C533.027 611.485 529.354 612.881 525.732 614.651C522.062 616.444 518.838 610.952 522.518 609.153C525.587 607.654 528.984 606.546 531.5 604.15C534.468 601.323 538.975 605.82 536.001 608.652M528.019 682.035C525.932 680.993 523.757 679.802 521.376 679.719C517.283 679.576 517.277 673.209 521.376 673.352C524.949 673.476 528.087 674.967 531.232 676.537C534.903 678.369 531.674 683.859 528.019 682.035M489.749 976.557C488.807 974.792 487.386 974.048 485.623 974.008C481.526 973.915 481.524 967.548 485.623 967.641C489.642 967.733 493.327 969.751 495.247 973.343C497.179 976.959 491.682 980.171 489.749 976.557M476.496 838.307C475.229 837.144 475.318 834.984 476.496 833.806C477.871 832.43 479.246 831.055 480.622 829.68C481.88 828.422 483.852 828.513 485.123 829.68C486.39 830.843 486.302 833.003 485.123 834.182C483.747 835.557 482.373 836.932 480.998 838.307C479.739 839.566 477.767 839.474 476.496 838.307M460.87 1053.77C456.278 1053.66 451.973 1052.34 447.649 1050.9C443.774 1049.62 445.445 1043.47 449.341 1044.77C453.1 1046.02 456.875 1047.31 460.87 1047.4C464.968 1047.5 464.969 1053.86 460.87 1053.77M440.244 917.625C436.095 917.51 432.653 915.397 429.743 912.567C426.799 909.705 431.306 905.207 434.245 908.066C435.91 909.684 437.832 911.192 440.244 911.259C444.34 911.372 444.343 917.739 440.244 917.625M453.053 742.544C453.103 744.239 453.819 746.055 454.871 747.169C457.684 750.149 453.188 754.656 450.369 751.671C448.044 749.209 446.784 745.913 446.687 742.544C446.569 738.439 452.936 738.456 453.053 742.544M404.494 603.882C403.162 601.273 401.416 598.214 398.76 596.773C395.154 594.816 398.371 589.321 401.974 591.276C405.583 593.235 408.166 597.096 409.991 600.669C411.853 604.314 406.357 607.532 404.494 603.882M396.242 670.092C394.765 670.05 393.299 669.797 391.874 669.411C391.266 669.246 390.664 669.056 390.054 668.89C389.793 668.819 388.685 668.681 389.366 668.717C387.642 668.625 386.183 667.334 386.183 665.534C386.183 663.879 387.647 662.258 389.366 662.351C391.729 662.477 393.877 663.659 396.242 663.726C400.336 663.841 400.339 670.208 396.242 670.092M375.615 771.855H368.74C364.637 771.855 364.644 765.489 368.74 765.489H375.615C379.718 765.489 379.711 771.855 375.615 771.855M367.595 1053.33C365.51 1054.38 363.053 1055.36 361.364 1056.96C358.387 1059.78 353.879 1055.28 356.863 1052.46C359.014 1050.43 361.764 1049.15 364.383 1047.84C365.926 1047.06 367.823 1047.41 368.738 1048.98C369.565 1050.39 369.133 1052.56 367.595 1053.33M352.233 972.891C351.966 972.817 351.685 972.766 351.415 972.729C350.333 972.582 349.2 972.633 348.113 972.633C344.01 972.63 344.016 966.264 348.113 966.266C351.342 966.268 354.701 966.313 357.24 968.574C358.528 969.721 358.403 971.912 357.24 973.075C355.975 974.34 354.021 974.219 352.738 973.075C352.873 973.197 352.41 972.941 352.233 972.891M348.115 864.704C349.039 862.797 349.054 861.554 349.055 859.434C349.059 855.331 355.425 855.338 355.422 859.434C355.42 862.511 354.962 865.131 353.612 867.917C352.858 869.471 350.652 869.876 349.257 869.059C347.693 868.145 347.366 866.25 348.115 864.704M329.708 715.36C326.015 716.616 322.719 718.394 319.468 720.54C316.035 722.805 312.85 717.289 316.254 715.042C319.965 712.594 323.803 710.653 328.015 709.22C331.91 707.896 333.566 714.048 329.708 715.36M308.235 608.209C305.492 608.286 302.661 609.338 300.216 610.525C296.542 612.309 293.318 606.817 297.004 605.027C300.496 603.331 304.316 601.952 308.235 601.843C312.341 601.727 312.323 608.095 308.235 608.209M298.61 894.247C297.531 894.296 296.608 893.712 296.037 892.873C295.977 892.873 295.918 892.872 295.859 892.872C294.075 892.871 292.754 891.414 292.676 889.689C292.599 887.97 294.195 886.504 295.859 886.505C296.983 886.506 298.098 886.574 299.142 887.015C300.828 887.727 301.724 889.265 301.793 891.064C301.86 892.846 300.28 894.172 298.61 894.247M282.954 674.104C279.045 675.382 277.385 669.232 281.262 667.965C285.813 666.478 290.463 665.326 295.013 663.839C298.923 662.562 300.583 668.712 296.705 669.979C292.156 671.465 287.505 672.617 282.954 674.104M268.677 794.272C267.465 798.18 261.322 796.502 262.538 792.58C263.712 788.793 263.797 784.983 263.799 781.049C263.802 776.946 270.168 776.953 270.165 781.049C270.163 785.526 270.013 789.963 268.677 794.272M226.114 938.202C225.882 939.787 224.625 940.929 222.979 941.003C221.304 941.078 219.736 939.486 219.796 937.82C219.913 934.615 222.526 932.003 225.729 931.886C227.512 931.821 228.838 933.397 228.912 935.07C228.986 936.696 227.628 937.965 226.114 938.202M204.574 755.24C201.21 756.363 197.615 757.432 194.978 759.922C191.998 762.734 187.491 758.239 190.477 755.42C193.954 752.137 198.427 750.588 202.882 749.1C206.783 747.798 208.44 753.949 204.574 755.24M189.975 878.919C189.051 880.499 187.178 880.785 185.621 880.061C183.533 879.09 181.227 879.122 178.976 879.12C174.874 879.117 174.88 872.75 178.976 872.753C182.449 872.757 185.653 873.084 188.834 874.563C190.399 875.292 190.781 877.542 189.975 878.919M181.726 1029.02C179.944 1029.08 178.618 1027.5 178.543 1025.83C178.47 1024.21 179.827 1022.94 181.343 1022.7C181.573 1021.11 182.832 1019.97 184.476 1019.9C186.152 1019.82 187.721 1021.42 187.66 1023.08C187.543 1026.29 184.932 1028.9 181.726 1029.02M761.707 1053.09C760.626 1049.2 758.151 1046.05 756.281 1042.55C755.654 1041.37 755.436 1040.64 755.096 1039.77C754.635 1040.7 753.739 1041.39 752.391 1041.39C749.807 1041.39 746.784 1041.23 744.372 1042.33C742.803 1043.05 740.955 1042.8 740.017 1041.19C739.211 1039.81 739.596 1037.55 741.159 1036.84C744.714 1035.21 748.535 1035.03 752.391 1035.02C753.344 1035.02 754.065 1035.38 754.574 1035.9C756.048 1015.72 756.011 995.524 754.617 975.327C753.13 953.744 749.707 932.591 746.126 911.287C744.392 900.957 742.14 890.524 742.578 880.003C743.016 869.554 747.496 859.813 744.321 849.332C743.047 845.13 740.867 841.278 739.45 837.124C737.931 832.652 738.066 828.235 738.758 823.603C740.183 814.173 742.545 804.854 738.765 795.646C737.095 791.563 734.389 787.918 733.084 783.701C731.461 778.456 731.684 772.654 731.413 767.219C730.864 756.253 730.721 745.214 729.813 734.272C729.408 729.37 728.525 724.722 726.511 720.225C724.577 715.896 721.705 711.957 720.424 707.365C719.15 702.845 719.039 698.078 718.355 693.454C717.638 688.568 716.516 683.753 715.004 679.057C709.163 660.881 698.46 644.55 685.815 630.393C672.375 615.344 656.308 604.011 639.254 593.451C630.287 587.897 621.32 582.344 612.359 576.791C612.168 577.832 611.503 578.79 610.228 579.216C606.862 580.34 603.27 581.408 600.632 583.898C597.652 586.711 593.144 582.215 596.13 579.397C599.245 576.456 603.159 574.908 607.143 573.548C603.059 570.974 598.933 568.309 594.325 566.822C590.29 565.517 584.338 566.655 581.067 563.695C578.497 561.363 577.685 557.042 576.699 553.874C575.465 549.943 574.399 545.797 572.831 541.977C571.765 539.366 570.213 536.859 568.255 534.838C567.396 531.527 565.82 528.503 563.034 526.665C555.746 521.842 546.793 526.633 543.586 533.509C540.936 533.501 538.143 534.082 535.565 534.241C530.265 534.575 524.957 534.727 519.65 534.711C509.265 534.679 498.872 534.002 488.575 532.626C470.16 530.159 452.295 525.185 434.191 521.309C434.088 521.07 433.968 520.831 433.825 520.593C429.926 514.051 420.21 515.157 414.089 517.632C411.464 518.691 408.79 520.028 407.286 522.511C405.695 523.585 404.318 524.89 403.403 526.267C401.509 529.108 400.045 534.838 396.201 535.315C393.67 535.626 391.1 535.14 388.53 535.506C385.315 535.952 382.434 537.082 379.466 538.371C356.866 548.184 333.502 559.095 308.975 562.899C303.223 563.79 297.366 564.713 292.368 567.936C288.31 570.555 285.174 574.152 281.824 577.566C278.562 580.892 275.872 582.365 271.217 582.962C265.567 583.686 260.673 585.246 256.543 589.352C253.113 592.766 250.877 597.127 248.187 601.09C245.449 605.133 241.431 607.409 237.261 609.757C227.401 615.312 218.218 622.021 210.221 630.066C193.374 647.033 183.172 668.839 172.891 690.088C161.774 713.071 151.381 736.333 144.171 760.876C137.105 784.974 132.903 809.764 130.961 834.785C128.916 861.039 128.63 887.397 126.927 913.667C126.075 926.79 125.431 939.929 124.778 953.06C124.142 966.032 123.211 979.028 123.361 992.016C123.648 1017.12 128.669 1042.31 137.447 1065.82C139.635 1071.67 142.062 1077.44 144.648 1083.12C146.917 1088.11 154.675 1087.55 157.111 1083.12C157.668 1082.1 158.105 1081.05 158.471 1079.99C164.837 1080.04 171.267 1079.55 177.594 1080.14C188.766 1081.18 199.962 1081.76 211.167 1082.45C233.338 1083.83 255.548 1084.75 277.726 1086.01C279.878 1086.13 282.03 1086.26 284.181 1086.38C268.376 1037.46 270.426 984.573 267.925 933.694C267.723 929.593 274.091 929.617 274.291 933.694C276.802 984.791 274.664 1037.82 291.027 1086.82C297.376 1087.25 303.716 1087.77 310.035 1088.54C315.143 1089.15 320.276 1089.88 325.433 1089.62C331.282 1089.35 336.995 1088.01 342.701 1086.85C353.07 1084.74 363.057 1085.69 373.466 1086.99C384.599 1088.38 395.771 1089.15 406.976 1089.64C451.842 1091.61 497.01 1093.4 541.86 1090.4C552.714 1089.67 563.544 1088.65 574.327 1087.27C585.436 1085.84 596.426 1083.45 607.526 1082.09C618.468 1080.75 628.527 1084.42 639.342 1085.1C650.371 1085.79 661.695 1083.49 672.621 1082.17C676.186 1081.73 679.754 1081.31 683.323 1080.9C678.728 1049.4 676.116 1017.67 673.578 985.952C673.251 981.86 679.619 981.895 679.944 985.952C682.461 1017.42 685.016 1048.92 689.603 1080.17C708.523 1077.96 727.461 1075.74 746.183 1072.31C751.514 1071.34 756.814 1069.75 760.005 1064.99C762.368 1061.47 762.846 1057.15 761.707 1053.09" fill="black"/>
<path fill-rule="evenodd" clip-rule="evenodd" d="M618.738 385.182C617.025 370.129 619.242 338.665 619.39 336.753C620.329 324.669 614.668 276.949 603.964 281.346C586.01 267.131 562.096 263.993 539.735 262.493C493.288 259.378 443.876 266.529 408.01 297.789C390.273 314.023 373.006 337.634 374.394 362.219C358.279 385.522 335.56 417.488 355.639 444.732C362.464 453.436 373.311 456.677 381.885 463.269C399.131 477.18 409.951 497.144 427.36 510.972C473.483 552.421 551.801 561.08 597.117 513.935C632.159 479.791 626.493 428.71 620.329 385.182C616.185 355.917 622.08 414.549 618.738 385.182Z" fill="white"/>
<path fill-rule="evenodd" clip-rule="evenodd" d="M477.688 198.658C490.11 196.151 502.865 194.591 515.551 195.061L516.529 195.099C526.073 195.48 538.161 196.324 546.487 201.875C546.966 201.394 547.737 201.147 548.435 201.481C558.33 206.204 569.213 209.619 579.631 213.012C590.002 216.389 600.761 218.618 611.63 219.516C615.72 219.855 619.219 224.271 616.63 228.232C616.014 229.175 615.414 230.129 614.816 231.085C615.816 230.98 616.815 230.873 617.815 230.772C621.104 230.441 624.39 233.951 624.195 237.154C624.073 239.168 623.856 241.158 623.534 243.125C624.787 243.098 626.032 243.286 627.235 243.795C633.328 246.368 632.904 253.625 632.448 259.146C631.816 266.808 628.95 274.924 623.63 280.659C627.602 284.785 630.414 289.713 632.092 295.566C633.309 299.839 633.986 304.391 633.652 308.84L633.545 310.172C633.132 314.999 632.31 320.344 628.837 323.817C627.055 325.608 624.858 326.261 622.765 326.054C624.031 337.179 624.842 348.369 625.606 359.518L625.965 364.847C627.669 390.616 628.949 416.552 628.614 442.363C628.303 466.485 623.537 489.898 608.744 509.483C595.271 527.318 575.926 540.465 554.042 545.463C542.249 548.16 530.209 548.351 518.272 546.632C512.486 545.797 506.662 544.516 501.17 542.494C495.091 540.25 490.723 536.947 486.632 531.997C484.698 529.65 485.629 524.652 489.481 525.121C495.307 525.828 500.626 526.679 506.211 528.403L507.011 528.655C512.575 530.437 518.336 531.766 524.152 532.331C536.066 533.485 548.161 532.324 559.573 528.71C578.154 522.821 594.157 509.698 604.415 493.209C616.59 473.663 617.967 451.476 617.791 429.002C617.603 404.34 616.801 379.665 615.491 355.029L615.268 350.923C614.576 338.246 613.908 325.56 613.32 312.875C613.137 308.896 612.858 304.885 612.356 300.913C607.765 298.224 603.651 294.515 600.969 289.939C595.582 292.167 589.916 293.775 584.703 295.056C572.628 298.026 560.091 298.747 547.8 296.887C544.485 298.257 541.104 299.461 537.671 300.497C536.743 300.909 535.815 301.313 534.888 301.709C526.611 305.251 518.216 308.251 509.479 310.447L507.333 310.983C502.735 312.116 497.741 313.232 492.847 313.583C492.044 313.893 491.176 314.156 490.228 314.387C485.773 315.469 481.149 315.811 476.582 315.429C472.132 315.055 468.918 310.559 471.369 306.349C473.159 303.277 474.966 300.213 476.789 297.157C470.446 299.799 463.897 301.996 457.292 303.858C450.623 305.736 443.859 307.32 437.087 308.776C433.466 309.548 429.83 310.233 426.217 311.005C423.631 311.554 419.66 311.84 417.55 313.543C415.219 315.413 414.559 319.775 413.675 322.464C412.513 325.958 411.423 329.468 410.428 333.017C408.447 340.1 406.824 347.286 405.567 354.544C404.309 361.81 403.465 369.148 402.996 376.509C402.527 383.862 402.733 391.264 401.978 398.585C401.571 402.469 397.402 404.466 394.322 401.752C393.961 401.434 393.597 401.112 393.236 400.787L392.699 400.296C390.064 397.909 387.51 395.378 385.402 392.529C385.02 392.004 384.654 391.455 384.312 390.897C384.256 390.897 384.208 390.882 384.152 390.842L383.568 390.402C377.132 385.611 366.38 379.365 360.104 387.324C358.104 389.86 357.081 393.088 356.231 396.203L354.74 401.777C353.775 405.416 352.868 409.075 352.337 412.799C351.135 421.139 351.74 430.752 357.478 437.437C359.77 440.111 362.929 442.021 366.454 442.523C368.42 442.793 370.362 442.459 372.311 442.212C374.293 441.966 376.202 442.363 378.184 442.172C381.335 441.862 382.712 445.634 381.534 448.006C380.898 449.279 380.149 450.377 379.298 451.309C379.982 451.897 380.635 452.534 381.264 453.203C383.126 453.799 384.796 455.081 386.046 456.776C387.057 458.145 387.581 459.633 387.67 461.201C387.78 461.591 387.876 461.989 387.964 462.394L389.671 465.165C390.047 465.773 390.421 466.373 390.796 466.962C395.141 473.807 399.964 479.6 405.957 485.059C411.726 490.312 417.988 495.015 423.408 500.65L424.046 501.319C429.099 506.643 434.426 513.089 432.448 520.832C431.939 522.821 429.161 524.254 427.347 522.909C421.514 518.58 418.577 511.72 413.628 506.467C408.534 501.056 402.892 496.193 397.784 490.797C392.953 485.704 389.141 479.934 386.269 473.584C385.122 474.849 383.452 475.748 381.136 476.098C377.158 476.695 373.448 474.364 371.714 470.918C370.6 471.411 369.462 471.857 368.316 472.207C362.284 474.053 358.489 467.344 360.765 462.386C361.981 459.728 363.501 457.42 365.388 455.479C359.491 454.667 353.49 451.619 349.615 447.815C339.891 438.257 338.555 423.892 340.743 411.119C341.905 404.347 343.909 397.495 346.512 391.136C346.965 390.03 347.451 388.916 347.984 387.818C347.689 387.81 347.387 387.682 347.196 387.436C345.437 385.032 343.297 383.067 341.992 380.377C340.79 377.91 339.454 375.411 338.506 372.84C336.557 367.58 335.602 361.643 334.966 356.08C333.653 344.692 334.161 333.375 335.905 322.059C338.872 302.784 346.04 284.338 356.601 268.153C356.026 267.85 355.475 267.486 354.962 267.054L354.708 266.833L354.296 266.461C351.282 263.733 351.542 258.622 354.296 255.859L355.165 254.988C356.267 253.894 357.216 253.027 358.995 251.836C359.257 251.66 359.526 251.494 359.797 251.34C358.866 249.619 358.543 247.608 359.191 245.388C361.451 237.656 372.576 237.929 379.628 241.301C387.429 234.339 396.079 228.294 405.455 223.4C427.785 211.749 453.034 203.624 477.688 198.658ZM362.261 402.31C366.431 400.949 371.969 403.806 375.717 405.525C380.468 407.705 384.511 410.928 388.426 414.334C390.376 416.038 390.725 418.823 390.24 421.202C390.192 421.441 390.145 421.688 390.088 421.935C389.571 424.473 386.738 426.471 384.231 426.399C378.987 426.256 376.489 421.728 373.52 417.892C373.171 418.513 372.733 419.086 372.191 419.515L371.825 419.802C370.594 420.74 369.235 421.49 367.608 421.417C366.454 421.362 365.349 421.067 364.329 420.534C361.783 419.189 360.661 415.894 361.353 413.212C361.783 411.525 362.769 410.204 364.059 409.289L363.578 408.96C362.55 408.245 361.612 407.49 360.881 406.377L360.716 406.114H360.78C359.984 404.745 360.502 402.883 362.261 402.31Z" fill="black"/>
<path fill-rule="evenodd" clip-rule="evenodd" d="M539.206 483.007C533.857 480.825 529.084 477.185 525.594 472.534C524.381 470.917 524.066 469.21 524.321 467.649C524.607 465.893 525.646 464.302 527.062 463.234C528.483 462.164 530.26 461.636 531.979 461.905C533.472 462.139 534.958 462.956 536.135 464.652L536.38 464.991C538.455 467.798 541.158 470.101 544.239 471.585C547.208 473.016 550.528 473.684 553.964 473.295C560.508 472.556 565.019 469.017 569.813 464.21C570.408 463.603 571.002 462.977 571.6 462.342C571.977 461.765 572.501 461.395 573.082 461.2C573.728 460.984 574.458 460.997 575.127 461.23C575.772 461.455 576.349 461.882 576.736 462.45C577.103 462.989 577.312 463.656 577.244 464.423C576.805 469.404 574.201 473.85 570.502 477.34C566.394 481.217 560.948 483.899 555.821 484.84C550.173 485.876 544.418 485.134 539.206 483.007V483.007ZM558.486 406.163C564.495 409.816 573.651 418.334 567.187 427.39C559.578 435.374 548.622 426.219 543.223 422.079C538.217 418.87 532.592 427.123 537.237 430.87C576.249 459.755 592.081 407.118 561.525 401.868C558.161 401.29 556.912 405.033 558.486 406.163ZM488.576 372.563C489.24 364.321 501.792 362.449 503.04 370.605C504.158 377.911 502.842 384.622 499.552 391.199C496.408 397.483 488.505 394.551 487.908 388.829C487.106 381.159 488.163 377.69 488.576 372.563ZM584.12 368.914C585.87 366.622 588.397 365.057 591.424 365.941C600.881 368.705 598.094 382.133 594.772 388.669C592.967 392.219 587.134 393.119 584.497 389.994C580.2 384.897 578.142 374.719 583.605 369.699C583.753 369.44 583.918 369.178 584.12 368.914ZM499.419 336.499L500.912 336.238C505.534 335.438 511.281 334.67 514.55 338.386C516.284 340.356 516.881 344.019 514.55 345.905C510.45 349.224 505.918 347.938 501.005 348.218C496.956 348.451 493.064 349.121 489.164 350.236C480.608 352.681 473.636 357.146 466.329 362.048C465.37 362.691 464.391 361.465 464.848 360.568C469.067 352.305 477.242 345.517 485.43 341.38C489.801 339.171 494.583 337.34 499.419 336.499ZM575.499 332.798L576.642 333.032C589.086 335.633 605.253 340.829 611.146 353.053C611.37 354.781 611.133 355.151 610.94 355.393L610.876 355.474C610.717 355.681 610.59 355.966 609.841 356.201C609.633 356.151 609.423 356.099 609.211 356.043C606.51 355.335 604.373 354.36 602.304 353.348L600.06 352.243C597.458 350.967 594.832 349.737 592.05 348.829C586.112 346.892 580.004 345.528 573.801 344.799C572.457 344.641 571.162 344.187 570.141 343.41C569.171 342.672 568.431 341.65 568.093 340.291C567.656 338.533 567.781 337.202 568.725 335.616C569.434 334.425 570.449 333.6 571.614 333.126C572.802 332.642 574.154 332.528 575.499 332.798Z" fill="black"/>
<path fill-rule="evenodd" clip-rule="evenodd" d="M599.64 441.874C592.437 438.506 584.696 436.502 576.743 435.791C573.304 435.483 566.548 434.511 562.889 436.755C561.178 437.805 559.733 439.273 558.586 441.065C558.139 440.446 557.55 439.92 557.177 439.251C555.174 435.652 542.881 435.578 539.17 435.883C530.368 436.607 521.802 438.674 513.734 442.149C499.25 448.388 487.083 461.351 490.909 477.809C491.45 480.14 494.061 481.046 496.212 480.644C510.71 477.926 525.209 475.207 539.708 472.49C543.073 471.859 546.439 471.228 549.804 470.597C552.848 470.026 556.579 469.846 559.468 468.533C560.629 469.029 561.923 469.344 563.305 469.618C580.749 473.083 598.215 476.445 615.671 479.858C617.764 480.268 620.509 479.206 620.885 476.887C623.39 461.413 613.536 448.371 599.64 441.874" fill="black"/>
</svg>
